<svg xmlns="http://www.w3.org/2000/svg" width="80" height="80" viewBox="0 0 80 80">
  <circle cx="40" cy="40" r="30" fill="#12151E" fill-opacity=".78"/>
  <circle cx="40" cy="40" r="30" fill="none" stroke="#12151E" stroke-opacity=".9" stroke-width="7" stroke-dasharray="7 6"/>
  <circle cx="40" cy="40" r="30" fill="none" stroke="#b06bff" stroke-width="4" stroke-dasharray="7 6"/>
  <g fill="none" stroke="#12151E" stroke-opacity=".9" stroke-width="12" stroke-linecap="round" stroke-linejoin="round">
    <path d="M28 18 L40 30 L52 18"/>
    <path d="M28 18 L40 30 L52 18" transform="rotate(90 40 40)"/>
    <path d="M28 18 L40 30 L52 18" transform="rotate(180 40 40)"/>
    <path d="M28 18 L40 30 L52 18" transform="rotate(270 40 40)"/>
  </g>
  <g fill="none" stroke="#b06bff" stroke-width="7" stroke-linecap="round" stroke-linejoin="round">
    <path d="M28 18 L40 30 L52 18"/>
    <path d="M28 18 L40 30 L52 18" transform="rotate(90 40 40)"/>
    <path d="M28 18 L40 30 L52 18" transform="rotate(180 40 40)"/>
    <path d="M28 18 L40 30 L52 18" transform="rotate(270 40 40)"/>
  </g>
</svg>
